<?xml version="1.0" encoding="UTF-8"?>
<svg width="40" height="40" viewBox="0 0 40 40" fill="none" xmlns="http://www.w3.org/2000/svg">
  <path d="M20 5C11.7 5 5 11.7 5 20C5 28.3 11.7 35 20 35C28.3 35 35 28.3 35 20C35 11.7 28.3 5 20 5ZM20 32.5C13.1 32.5 7.5 26.9 7.5 20C7.5 13.1 13.1 7.5 20 7.5C26.9 7.5 32.5 13.1 32.5 20C32.5 26.9 26.9 32.5 20 32.5Z" fill="#000000"/>
  <path d="M20 10C14.5 10 10 14.5 10 20C10 25.5 14.5 30 20 30C25.5 30 30 25.5 30 20C30 14.5 25.5 10 20 10ZM20 27.5C16.1 27.5 12.5 23.9 12.5 20C12.5 16.1 16.1 12.5 20 12.5C23.9 12.5 27.5 16.1 27.5 20C27.5 23.9 23.9 27.5 20 27.5Z" fill="#000000"/>
  <path d="M30 12.5C30 13.3 29.3 14 28.5 14C27.7 14 27 13.3 27 12.5C27 11.7 27.7 11 28.5 11C29.3 11 30 11.7 30 12.5Z" fill="#000000"/>
</svg> 