<?xml version="1.0" encoding="UTF-8"?>
<svg width="40" height="40" viewBox="0 0 40 40" fill="none" xmlns="http://www.w3.org/2000/svg">
  <path d="M28.5 12.5V8.5C25.5 8.5 22.5 7.5 20 5.5V20.5C20 24.5 16.5 27.5 12.5 27.5C8.5 27.5 5 24.5 5 20.5C5 16.5 8.5 13.5 12.5 13.5C13.5 13.5 14.5 13.7 15.5 14V10C14.5 9.9 13.5 9.8 12.5 9.8C6.5 9.8 1.5 14.8 1.5 20.8C1.5 26.8 6.5 31.8 12.5 31.8C18.5 31.8 23.5 26.8 23.5 20.8V15.5C25.5 17.5 28.5 18.5 31.5 18.5V14.5C28.5 14.5 25.5 13.5 23.5 11.5L28.5 12.5Z" fill="#000000"/>
</svg> 